<svg xmlns="http://www.w3.org/2000/svg" width="204.22852px" height="138.71387px" viewBox="0 0 204.22852 138.71387"><defs><style>.a{fill:#00873c;}</style></defs><title>Computer Science</title><path class="a" d="M109.79,113.332c-11.80469,15.64209-30.10352,25.38184-49.87793,25.38184C23.31543,138.71387,0,106.544,0,74.374,0,33.64551,28.333,0,70.24219,0c15.34668,0,38.07226,5.01758,38.07226,16.23242,0,5.90283-5.3125,12.98633-11.50976,12.98633-10.91992,0-6.49317-18.59375-35.416-18.59375-26.5625,0-39.54883,23.61084-39.54883,47.5166,0,30.104,20.06934,62.86426,52.82911,62.86426a39.86307,39.86307,0,0,0,32.16992-17.11816,10.93361,10.93361,0,0,1,3.24707,1.47558C112.74219,106.83936,113.03711,108.90527,109.79,113.332Z"/><path class="a" d="M157.30273,138.71387c-9.44433,0-24.20117-2.65625-32.16992-7.37842,0-7.37842-.88574-24.7915-.88574-29.80859a6.882,6.882,0,0,1,3.24707-.59034,2.87365,2.87365,0,0,1,2.95117,2.36084c3.2461,14.16651,11.21485,25.97217,27.74219,25.97217,15.64258,0,25.08691-7.08349,25.08691-21.25,0-28.92285-55.78027-29.51318-55.78027-70.24219C127.49414,19.18408,143.13574,0,170.28809,0c10.91992,0,21.84082,2.95166,28.92382,7.0835,0,7.37841.58985,18.88867.58985,23.90576a6.87718,6.87718,0,0,1-3.2461.59033c-1.47558,0-2.95117-.29492-3.24707-1.771-3.83593-14.75634-12.3955-20.36425-25.08593-20.36425-14.167,0-21.25,8.854-21.25,18.00341,0,29.51368,57.25586,32.46485,57.25586,69.06153C204.22852,123.957,183.56934,138.71387,157.30273,138.71387Z"/></svg>