<svg version="1.1" id="_x31_0" xmlns="http://www.w3.org/2000/svg" xmlns:xlink="http://www.w3.org/1999/xlink" x="0" y="0" width="512" height="512" viewBox="0 0 512 512" style="width: 512px; height: 512px; opacity: 1;" xml:space="preserve">
<g>
	<path class="st0" d="M274.574,10.916c-7.633-14.554-29.516-14.554-37.149,0L95.364,281.891v229.25v0.699l0,0V512h321.272V281.891
		L274.574,10.916z M305.203,178.595l60.734,115.847v30.722h-20.281c-19.879,12.949-52.609,21.484-89.656,21.484
		c-37.046,0-69.777-8.535-89.656-21.484h-20.281v-30.722l60.742-115.859c9.133,7.226,27.711,12.149,49.195,12.149
		c20.805,0,38.797-4.637,48.214-11.489C304.527,179.021,304.902,178.822,305.203,178.595z" style="fill:#006543;"></path>
</g>
</svg>
