<svg xmlns="http://www.w3.org/2000/svg" viewBox="0 0 204.23 138.71"><defs><style>.cls-1{fill:#00873c;}</style></defs><title>Computer Science</title><path class="cls-1" d="M109.79,113.33C98,129,79.69,138.71,59.91,138.71,23.32,138.71,0,106.54,0,74.37,0,33.65,28.33,0,70.24,0c15.35,0,38.07,5,38.07,16.23,0,5.9-5.31,13-11.51,13-10.92,0-6.49-18.59-35.42-18.59-26.56,0-39.55,23.61-39.55,47.52,0,30.1,20.07,62.86,52.83,62.86a39.86,39.86,0,0,0,32.17-17.12,10.93,10.93,0,0,1,3.25,1.48C112.74,106.84,113,108.91,109.79,113.33Z"/><path class="cls-1" d="M157.3,138.71c-9.44,0-24.2-2.66-32.17-7.38,0-7.38-.89-24.79-.89-29.81a6.88,6.88,0,0,1,3.25-.59,2.87,2.87,0,0,1,3,2.36c3.25,14.17,11.21,26,27.74,26,15.64,0,25.09-7.08,25.09-21.25,0-28.92-55.78-29.51-55.78-70.24C127.49,19.18,143.14,0,170.29,0c10.92,0,21.84,3,28.92,7.08,0,7.38.59,18.89.59,23.91a6.88,6.88,0,0,1-3.25.59c-1.48,0-3-.29-3.25-1.77-3.84-14.76-12.4-20.36-25.09-20.36-14.17,0-21.25,8.85-21.25,18,0,29.51,57.26,32.46,57.26,69.06C204.23,124,183.57,138.71,157.3,138.71Z"/><path class="cls-1" d="M41.72,90.82c-.28,0-.46-.45-1-.45-1.25,0-2,2.86-2,3.75,0,.57.23,1,.77,1,.69,0,1.34-.66,1.82-1.25l.14.09c.08.08.05.15-.08.31A3.63,3.63,0,0,1,39,95.81c-.94,0-1.3-.68-1.3-1.56,0-1.47,1.47-4.46,3.64-4.46.42,0,.87.11.87.43S42,90.82,41.72,90.82Z"/><path class="cls-1" d="M45.55,95.81a1.77,1.77,0,0,1-1.86-2c0-1.65,1.31-4.07,3.16-4.07a1.77,1.77,0,0,1,1.88,1.94C48.73,93.38,47.4,95.81,45.55,95.81Zm1.38-5.7c-1.34,0-2.26,3.19-2.26,4.26,0,.54.15,1.12.8,1.12,1.34,0,2.26-3.19,2.26-4.26C47.73,90.7,47.58,90.11,46.93,90.11Z"/><path class="cls-1" d="M59.24,91.86l-.79,1.89a3.14,3.14,0,0,0-.28.94.21.21,0,0,0,.23.23c.32,0,.75-.51,1-.83a.33.33,0,0,1,.13.09c.08.06,0,.13-.08.26-.4.47-1.21,1.38-1.87,1.38-.38,0-.54-.28-.54-.62a4.76,4.76,0,0,1,.47-1.65l.66-1.63a3.15,3.15,0,0,0,.28-.89c0-.19-.12-.27-.29-.27-.33,0-.69.34-.92.57a8.71,8.71,0,0,0-2.05,3L55,95c-.18.52-.23.6-.74.6-.15,0-.33,0-.47,0l1.38-3.66a3.77,3.77,0,0,0,.29-.89c0-.19-.11-.27-.29-.27s-.68.34-.91.57a8.07,8.07,0,0,0-2,3L52,95c-.18.52-.23.6-.74.6-.15,0-.33,0-.47,0l1.31-3.7a3.44,3.44,0,0,0,.24-1c0-.14-.06-.23-.19-.23-.33,0-.77.65-.94.89a.26.26,0,0,1-.12-.08c-.08-.06,0-.13.05-.26.43-.61,1.14-1.44,1.75-1.44.37,0,.52.27.52.6a5.56,5.56,0,0,1-.4,1.43l-.29.85h0A10.57,10.57,0,0,1,54.15,91a3.22,3.22,0,0,1,2-1.19.52.52,0,0,1,.55.59,4,4,0,0,1-.46,1.44l-.24.54h0A10.63,10.63,0,0,1,57.17,91a3.22,3.22,0,0,1,2-1.19.53.53,0,0,1,.55.59A4.79,4.79,0,0,1,59.24,91.86Z"/><path class="cls-1" d="M64.08,95.81a2.34,2.34,0,0,1-.82-.14c-.05,0-.05,0-.08.06l-.51,1.9c-.19.73-.22.89.14.93l.65.08c.05,0,.08,0,.06.11a1,1,0,0,1-.08.19l-1.45,0-1.31,0a.54.54,0,0,1,0-.18c0-.08,0-.1.1-.11l.34-.05c.24,0,.34-.17.55-1l1.81-6.82s0-.05-.05-.08c-.45.15-.89.36-1.2.48a.69.69,0,0,1-.09-.17c0-.1,0-.15.18-.23.34-.15.8-.34,1.24-.51a.42.42,0,0,0,.1-.11L64,88.94a1.64,1.64,0,0,1,.88-.28.19.19,0,0,1,.17.05l-.32,1.17s0,.05.05.08A5.23,5.23,0,0,1,66,89.79a1.46,1.46,0,0,1,1.65,1.52C67.68,93,66,95.81,64.08,95.81Zm1.4-5.54a3.57,3.57,0,0,0-.78.11.31.31,0,0,0-.1.08l-1.07,4a1.5,1.5,0,0,0-.05.33.56.56,0,0,0,.64.59c1.38,0,2.5-2.77,2.5-4A1,1,0,0,0,65.49,90.28Z"/><path class="cls-1" d="M75.22,94.43c-.38.47-1.2,1.38-1.86,1.38-.37,0-.52-.27-.52-.6a5.11,5.11,0,0,1,.4-1.43l.36-1h0a15.88,15.88,0,0,1-1.49,1.82c-.8.85-1.34,1.19-1.87,1.19a.52.52,0,0,1-.54-.59,5.36,5.36,0,0,1,.42-1.48l.68-1.87a4.75,4.75,0,0,0,.31-1c0-.14-.05-.23-.18-.23-.33,0-.78.65-1,.89a.26.26,0,0,1-.12-.08c-.08-.06,0-.13.05-.26.45-.61,1.14-1.44,1.76-1.44a.56.56,0,0,1,.57.6,7.09,7.09,0,0,1-.5,1.68l-.57,1.61a3.74,3.74,0,0,0-.24.91c0,.17.08.27.2.27.28,0,.55-.23.92-.62a9.86,9.86,0,0,0,2.07-3.13l.22-.61c.09-.25.17-.5.22-.68a2,2,0,0,1,.46.05c.37.1.49.22.28.79l-1.1,3.07a3.48,3.48,0,0,0-.25,1c0,.14.05.23.18.23.32,0,.8-.51,1.07-.83a.33.33,0,0,1,.13.09C75.36,94.24,75.32,94.31,75.22,94.43Z"/><path class="cls-1" d="M81.57,90.48H80.3a.3.3,0,0,0-.1.08l-1,3.21a4,4,0,0,0-.2.92c0,.14.06.23.19.23.36,0,1-.71,1.25-1.08.05,0,.13.05.15.09s0,.15-.08.29c-.41.51-1.3,1.59-2.05,1.59a.54.54,0,0,1-.56-.6,5.49,5.49,0,0,1,.32-1.44l1-3.2s0-.06-.06-.09H78.4a.14.14,0,0,1-.05-.11c0-.1,0-.29.13-.34h.83a.31.31,0,0,0,.1-.08l.43-1.45a1.64,1.64,0,0,1,.75-.13c.09,0,.2,0,.25.05l-.46,1.52a.13.13,0,0,0,.05.09h1.2a.12.12,0,0,1,.05.1C81.69,90.23,81.66,90.43,81.57,90.48Z"/><path class="cls-1" d="M84.14,93.12a.27.27,0,0,0-.08.09,3.94,3.94,0,0,0-.13.92c0,.52.2,1,.8,1a2.88,2.88,0,0,0,2-1.25l.14.09c.08.08.05.15-.08.31a3.87,3.87,0,0,1-2.56,1.57c-.94,0-1.33-.66-1.33-1.56,0-1.65,1.49-4.46,3.46-4.46.63,0,1.13.29,1.13,1C87.48,92,85.83,92.93,84.14,93.12Zm1.94-3c-.83,0-1.52,1.36-1.89,2.58,0,0,0,.08.05.09,1.07-.11,2.3-.88,2.3-2.05C86.54,90.44,86.42,90.14,86.08,90.14Z"/><path class="cls-1" d="M93.28,91.09c-.15,0-.29-.05-.45-.05-.39,0-.68.42-.88.75a12.21,12.21,0,0,0-1.19,2.55l-.23.66c-.18.52-.23.6-.74.6-.15,0-.33,0-.47,0l.73-2A9.9,9.9,0,0,0,90.68,91c0-.13,0-.28-.19-.28-.33,0-.77.65-.93.89a.31.31,0,0,1-.13-.08c-.08-.06,0-.13.05-.25.43-.61,1.12-1.45,1.74-1.45.36,0,.46.26.46.6a8.94,8.94,0,0,1-.61,2.36h0c.28-.55.61-1.14.93-1.68.43-.75.82-1.28,1.34-1.28a.36.36,0,0,1,.4.41C93.77,90.56,93.58,91.09,93.28,91.09Z"/><path class="cls-1" d="M101.14,90.88c-.27,0-.56-.43-1.1-.43a.66.66,0,0,0-.69.65c0,1,1.5,1.49,1.5,2.77a2.18,2.18,0,0,1-2.16,2c-.59,0-1.07-.27-1.07-.68,0-.15.1-.64.36-.64s.56.68,1.37.68a.7.7,0,0,0,.71-.7c0-1-1.49-1.47-1.49-2.76a2.21,2.21,0,0,1,2.14-1.93c.33,0,.82.13.82.48C101.54,90.45,101.38,90.88,101.14,90.88Z"/><path class="cls-1" d="M107.45,90.82c-.28,0-.46-.45-1-.45-1.25,0-2,2.86-2,3.75,0,.57.23,1,.77,1,.69,0,1.34-.66,1.82-1.25l.14.09c.08.08.05.15-.08.31a3.63,3.63,0,0,1-2.4,1.57c-.94,0-1.3-.68-1.3-1.56,0-1.47,1.47-4.46,3.63-4.46.42,0,.87.11.87.43S107.74,90.82,107.45,90.82Z"/><path class="cls-1" d="M112,91.82l-.79,1.93a3.14,3.14,0,0,0-.28.94.21.21,0,0,0,.23.23c.32,0,.75-.51,1-.83a.28.28,0,0,1,.11.09c.08.06,0,.13-.06.26-.4.47-1.21,1.38-1.87,1.38-.38,0-.54-.28-.54-.62a4.84,4.84,0,0,1,.46-1.65l.69-1.67a2.9,2.9,0,0,0,.23-.84c0-.13-.06-.2-.18-.2-.27,0-.62.48-.84.74a.32.32,0,0,1-.13-.08c-.08-.06,0-.13.05-.26.43-.6,1.22-1.44,1.82-1.44.36,0,.5.27.5.59A4.74,4.74,0,0,1,112,91.82Zm.79-4.17a.55.55,0,0,1-.56-.57.64.64,0,0,1,.64-.68.55.55,0,0,1,.56.57A.64.64,0,0,1,112.8,87.65Z"/><path class="cls-1" d="M116,93.12a.27.27,0,0,0-.08.09,3.94,3.94,0,0,0-.13.92c0,.52.2,1,.8,1a2.88,2.88,0,0,0,2-1.25l.14.09c.08.08.05.15-.08.31a3.87,3.87,0,0,1-2.56,1.57c-.94,0-1.33-.66-1.33-1.56,0-1.65,1.49-4.46,3.46-4.46.63,0,1.13.29,1.13,1C119.33,92,117.69,92.93,116,93.12Zm1.94-3c-.83,0-1.52,1.36-1.89,2.58,0,0,0,.08.05.09,1.07-.11,2.3-.88,2.3-2.05C118.39,90.44,118.27,90.14,117.93,90.14Z"/><path class="cls-1" d="M126.9,91.86l-.78,1.89a3.15,3.15,0,0,0-.28.94c0,.15.08.23.22.23.32,0,.77-.51,1-.83a.28.28,0,0,1,.12.09c.08.06,0,.13-.06.26-.4.47-1.21,1.38-1.88,1.38-.38,0-.54-.28-.54-.62a4.74,4.74,0,0,1,.46-1.65l.68-1.63a3.13,3.13,0,0,0,.28-.89c0-.19-.13-.27-.31-.27-.34,0-.7.34-.93.57a7.92,7.92,0,0,0-2.07,3l-.22.64c-.18.52-.23.6-.74.6-.15,0-.33,0-.47,0l1.31-3.7a3.44,3.44,0,0,0,.24-1c0-.14-.06-.23-.19-.23-.33,0-.77.65-.94.89a.26.26,0,0,1-.12-.08c-.08-.06,0-.13.05-.26.43-.61,1.14-1.44,1.75-1.44.37,0,.52.27.52.6a5.56,5.56,0,0,1-.4,1.43l-.29.85h0A11.8,11.8,0,0,1,124.8,91a3.31,3.31,0,0,1,2-1.19.53.53,0,0,1,.56.59A4.87,4.87,0,0,1,126.9,91.86Z"/><path class="cls-1" d="M133.75,90.82c-.28,0-.46-.45-1-.45-1.25,0-2,2.86-2,3.75,0,.57.23,1,.77,1,.69,0,1.34-.66,1.82-1.25l.14.09c.08.08.05.15-.08.31a3.63,3.63,0,0,1-2.4,1.57c-.94,0-1.3-.68-1.3-1.56,0-1.47,1.47-4.46,3.64-4.46.42,0,.87.11.87.43S134,90.82,133.75,90.82Z"/><path class="cls-1" d="M137,93.12a.27.27,0,0,0-.08.09,3.94,3.94,0,0,0-.13.92c0,.52.2,1,.8,1a2.88,2.88,0,0,0,2-1.25l.14.09c.08.08.05.15-.08.31a3.87,3.87,0,0,1-2.56,1.57c-.94,0-1.33-.66-1.33-1.56,0-1.65,1.49-4.46,3.46-4.46.63,0,1.13.29,1.13,1C140.39,92,138.75,92.93,137,93.12Zm1.94-3c-.83,0-1.52,1.36-1.89,2.58,0,0,0,.08.05.09,1.07-.11,2.3-.88,2.3-2.05C139.45,90.44,139.33,90.14,139,90.14Z"/></svg>
