<svg xmlns="http://www.w3.org/2000/svg" viewBox="0 0 250.08 73.49" width="367" height="109"><defs><style>.cls-1{fill:#231815;}</style></defs><title>首都大学東京大学院 システムデザイン研究科 システムデザイン専攻 情報科学域</title><path class="cls-1" d="M1.72,2.34c1.19,0,1.67.06,2.23.06H5.11a2.17,2.17,0,0,1-.19-.6A2.23,2.23,0,0,0,4.05.33L4.13.19A2.45,2.45,0,0,1,5.28.75a1.65,1.65,0,0,1,.56,1.13.62.62,0,0,1-.26.51h2A17.78,17.78,0,0,0,8.35,0l.94.5a.23.23,0,0,1,.14.19c0,.08-.06.15-.17.2L9,1,8,2.39h2.29L11,1.58l1,.86a.28.28,0,0,1,0,.11.11.11,0,0,1-.09.11H7.22L6.47,4.09H9.13l.33-.45.82.66a.2.2,0,0,1,.1.15.19.19,0,0,1-.1.14L10,4.77V9.84c0,.15,0,.19-.17.26a1.38,1.38,0,0,1-.43.09c-.11,0-.16,0-.16-.16v-.7H4.53v.56c0,.23-.26.41-.57.41-.12,0-.19-.06-.19-.17V3.57l.85.52H6c.12-.62.15-.73.25-1.43H4c-.52,0-1,0-2.06.06ZM9.22,5.76V4.37H4.53V5.76Zm0,1.62V6H4.53V7.38Zm0,1.68V7.65H4.53V9.06Z"/><path class="cls-1" d="M15.66,5.09l.27.2c.44-.43.66-.66,1.05-1.11H15.33c-.35,0-.42,0-1.39,0l-.15-.35c.75,0,1.08,0,1.52,0h1V2.19h-1l-.91,0-.14-.35c1,0,1.1,0,2.05,0V.17l.91.1a.23.23,0,0,1,.24.21.37.37,0,0,1-.24.31L17,.88v1h.23l.56-.62.79.6A8.69,8.69,0,0,0,19.33.66l.78.58a.27.27,0,0,1,.1.2c0,.08-.07.16-.18.2l-.37.15A23.17,23.17,0,0,1,18,3.91h1l.65-.69.84.68a.23.23,0,0,1,.08.16.13.13,0,0,1-.11.13H17.75c-.44.49-.68.73-1.43,1.43h2l.31-.48.71.6c.08.07.11.11.11.16a.21.21,0,0,1-.14.16l-.17.09V9.6c0,.14-.06.22-.22.29a1.12,1.12,0,0,1-.36.1.15.15,0,0,1-.16-.16V9.29H16.36v.62a.24.24,0,0,1-.14.25.71.71,0,0,1-.37.13.17.17,0,0,1-.18-.18V6.19l-.73.52c-.17.13-.45.31-.86.56s-.26.16-.32.16a.08.08,0,0,1-.08-.08c0-.07,0-.07.32-.29a16.61,16.61,0,0,0,1.67-1.47Zm2.75,2.22V5.88H16.36V7.31Zm0,1.7V7.58H16.36V9Zm-1.22-5.1a18.1,18.1,0,0,0,1.24-1.72H17V3.91ZM21.57,1H23l.34-.41.74.74a.3.3,0,0,1,.09.19A.2.2,0,0,1,24,1.7l-.16,0L22.3,3.84a12.67,12.67,0,0,1,1.19,1.3,3,3,0,0,1,.64,1.72c0,.85-.58,1.63-1.21,1.63-.09,0-.09,0-.19-.42a.23.23,0,0,0-.14-.14l-.87-.4,0-.12.82,0h0A.91.91,0,0,0,23,7.36a.82.82,0,0,0,.29-.7A4.85,4.85,0,0,0,22,3.9l1.16-2.63H21.42V9.89c0,.18-.24.32-.53.32-.14,0-.19-.06-.19-.2V.42Z"/><path class="cls-1" d="M28.54,3.73c-.41,0-.42,0-2.1.06l-.14-.39c1.21,0,1.7.06,2.23.06h1.92c0-.39,0-.74,0-.87,0-.34,0-.34,0-1.71l0-.71,1.2.15a.22.22,0,0,1,.22.21c0,.08,0,.15-.17.24L31.38,1c0,1.17,0,1.35-.11,2.46h3.08l.79-.8,1,.78a.22.22,0,0,1,.08.17.12.12,0,0,1-.11.13H31.49A8.39,8.39,0,0,0,33.54,7.2a8.56,8.56,0,0,0,2.81,1.88l-.14.08-.44.23a3.4,3.4,0,0,0-.53.52,9.12,9.12,0,0,1-4-6.18A7,7,0,0,1,30.4,6.8a6.86,6.86,0,0,1-2.71,2.72,6.91,6.91,0,0,1-1.5.74.1.1,0,0,1-.1-.1c0-.08,0-.08.61-.44a7.55,7.55,0,0,0,3.74-6Z"/><path class="cls-1" d="M42.88,5.49l.75.25a15.1,15.1,0,0,0,1.26-1H41l-1,0-.11-.37,1.13,0,.83,0H45L45.4,4l.79.77a.32.32,0,0,1,.1.19c0,.11-.1.16-.34.16h-.43l-1.86.91v.63H46.8L47.43,6l1,.78a.18.18,0,0,1,.07.15.11.11,0,0,1-.11.1H43.67V9.4c0,.4,0,.46-.37.65a2.51,2.51,0,0,1-.57.2s-.09-.06-.11-.16c-.08-.31-.08-.32-.26-.38l-1-.24V9.24l1.11.06c.39,0,.4,0,.4-.25V7h-2.4C40.11,7,40,7,38.36,7l-.12-.4,1.18,0,1.05,0h2.4ZM39.46,2.37c.07.2.09.29.16.56h5.28a15,15,0,0,0,.86-2.8l1,.48a.24.24,0,0,1,.14.22c0,.13-.08.2-.24.24l-.28.06L45.3,2.92H47l.43-.49,1,1.08a.35.35,0,0,1,.1.23c0,.14-.11.22-.31.22a.54.54,0,0,1-.19,0l-.31-.07-1.12.85-.14-.08L47,3.2H39.67c0,.14,0,.23,0,.29,0,.75-.41,1.35-.91,1.35a.37.37,0,0,1-.41-.37c0-.19,0-.19.53-.77a2.06,2.06,0,0,0,.41-1.33Zm.49-2c1,.28,1.6.92,1.6,1.6a.51.51,0,0,1-.46.56.36.36,0,0,1-.28-.14c0-.07,0-.07-.23-.87a2.4,2.4,0,0,0-.66-1ZM42,.15c1.11.29,1.83.91,1.83,1.59a.46.46,0,0,1-.44.52.38.38,0,0,1-.31-.15,3.06,3.06,0,0,1-.26-.76,2,2,0,0,0-.86-1Z"/><path class="cls-1" d="M55,0l.92.09c.19,0,.29.1.29.21A.36.36,0,0,1,56,.61l-.24.13v1h3.09l.66-.77.94.73a.22.22,0,0,1,.09.17.14.14,0,0,1-.12.15H55.71V3.13h2.23l.34-.49.75.63a.29.29,0,0,1,.12.22c0,.08-.08.15-.19.19l-.2.07V6.59c0,.16-.32.36-.57.36A.15.15,0,0,1,58,6.8V6.22H56a9,9,0,0,0,4.6,2.83,2.44,2.44,0,0,0-.94.87,10,10,0,0,1-3.93-3.62V10c0,.14-.07.21-.23.29a1.28,1.28,0,0,1-.39.11c-.09,0-.14-.06-.14-.17V6.58a12.15,12.15,0,0,1-3.07,2.83,6.89,6.89,0,0,1-1.5.82.1.1,0,0,1-.09-.1c0-.06,0-.1.24-.23a12.56,12.56,0,0,0,3.63-3.67H52.68v.45c0,.1,0,.16-.18.24a1,1,0,0,1-.4.16A.15.15,0,0,1,52,6.92V2.62l.82.51H55V2H52.48L51.36,2l-.88,0-.23-.4,1.08,0,1.16,0H55Zm0,4.51V3.4H52.68V4.52ZM55,6V4.8H52.68V6ZM58,4.52V3.4H55.71V4.52ZM58,6V4.8H55.71V6Z"/><path class="cls-1" d="M66.12,7a.28.28,0,0,1,.14.24c0,.09-.11.18-.26.19l-.39,0a9,9,0,0,1-2.17,1.72,4.46,4.46,0,0,1-1,.49.07.07,0,0,1-.07-.07c0-.07,0-.07.34-.31a11,11,0,0,0,2.67-2.91ZM63.65,1.76l1,0h2.54V0l.94.1c.19,0,.29.1.29.23s-.06.15-.21.23l-.24.11V1.78h3L71.63,1l.93.75a.28.28,0,0,1,.1.2c0,.09,0,.11-.16.11H64.61c-.46,0-.88,0-1.93.06l-.31-.4Zm1.63,1.52h4.54l.33-.48.78.62a.22.22,0,0,1,.11.17.15.15,0,0,1-.11.15l-.23.11V5.94c0,.14-.31.29-.57.29s-.18,0-.18-.1V5.68h-2V9.31a.9.9,0,0,1-.48.81.75.75,0,0,1-.37.15c-.15,0-.21-.08-.24-.27s0-.18-.27-.26l-1-.28,0-.2h1c.5,0,.59-.1.58-.52v-3h-2v.44c0,.2-.2.34-.51.34-.15,0-.25-.07-.25-.17V2.85ZM70,5.37V3.56H65.12V5.37Zm-1.5,1.18a7,7,0,0,1,2.37.93C71.66,8,72,8.47,72,9a.49.49,0,0,1-.45.52c-.16,0-.26-.1-.49-.46A6.86,6.86,0,0,0,68.38,6.7Z"/><path class="cls-1" d="M77.07,3.73c-.41,0-.42,0-2.1.06l-.14-.39c1.21,0,1.7.06,2.23.06H79c0-.39,0-.74,0-.87,0-.34,0-.34,0-1.71l0-.71,1.2.15a.22.22,0,0,1,.22.21c0,.08,0,.15-.17.24L79.91,1c0,1.17,0,1.35-.11,2.46h3.08l.79-.8,1,.78a.22.22,0,0,1,.08.17.12.12,0,0,1-.11.13H80A8.39,8.39,0,0,0,82.07,7.2a8.56,8.56,0,0,0,2.81,1.88l-.14.08-.44.23a3.4,3.4,0,0,0-.53.52,9.12,9.12,0,0,1-4-6.18,7,7,0,0,1-.84,3.07,6.86,6.86,0,0,1-2.71,2.72,6.91,6.91,0,0,1-1.5.74.1.1,0,0,1-.1-.1c0-.08,0-.08.61-.44a7.55,7.55,0,0,0,3.74-6Z"/><path class="cls-1" d="M91.41,5.49l.75.25a15.1,15.1,0,0,0,1.26-1H89.56l-1,0-.11-.37,1.13,0,.83,0h3.17L93.93,4l.79.77a.32.32,0,0,1,.1.19c0,.11-.1.16-.34.16h-.43l-1.86.91v.63h3.13L96,6l1,.78a.18.18,0,0,1,.07.15.11.11,0,0,1-.11.1H92.2V9.4c0,.4,0,.46-.37.65a2.51,2.51,0,0,1-.57.2s-.09-.06-.11-.16c-.08-.31-.08-.32-.26-.38l-1-.24V9.24L91,9.3c.39,0,.4,0,.4-.25V7H89c-.36,0-.43,0-2.11.06l-.12-.4,1.18,0,1.05,0h2.4ZM88,2.37c.07.2.09.29.16.56h5.28A15,15,0,0,0,94.3.13l1,.48a.24.24,0,0,1,.14.22c0,.13-.08.2-.24.24l-.28.06L93.83,2.92h1.71L96,2.44l1,1.08a.35.35,0,0,1,.1.23c0,.14-.11.22-.31.22a.54.54,0,0,1-.19,0l-.31-.07-1.12.85L95,4.64l.58-1.44H88.2c0,.14,0,.23,0,.29,0,.75-.41,1.35-.91,1.35a.37.37,0,0,1-.41-.37c0-.19,0-.19.53-.77a2.06,2.06,0,0,0,.41-1.33Zm.49-2c1,.28,1.6.92,1.6,1.6a.51.51,0,0,1-.46.56.36.36,0,0,1-.28-.14c0-.07,0-.07-.23-.87a2.4,2.4,0,0,0-.66-1ZM90.53.15c1.11.29,1.83.91,1.83,1.59a.46.46,0,0,1-.44.52.38.38,0,0,1-.31-.15,3.06,3.06,0,0,1-.26-.76,2,2,0,0,0-.86-1Z"/><path class="cls-1" d="M100.11.91h1.33l.32-.48.69.63c.11.11.15.17.15.24s0,.11-.15.16l-.25.12-1.37,2.18a2.06,2.06,0,0,0,.17.17l.33.34a3.64,3.64,0,0,1,.86,1.3h5.17l.67-.79.93.76a.19.19,0,0,1,.06.14c0,.1-.06.17-.12.17H106.6V9c0,.23.09.27.52.27.63,0,.84,0,1-.19a4.82,4.82,0,0,0,.33-.87l.09-.35.06-.22.17,0V8.75a.93.93,0,0,0,0,.24l.14.1a.54.54,0,0,1,.19.32c0,.34-.7.52-2,.52-1.11,0-1.26-.1-1.26-.83V5.85h-.91A7.29,7.29,0,0,1,104.46,8,4.08,4.08,0,0,1,102,10a3.61,3.61,0,0,1-.88.25.1.1,0,0,1-.11-.11c0-.07,0-.07.41-.24a4.05,4.05,0,0,0,2.72-4.09h-1.81a2.1,2.1,0,0,1,.08.55c0,.91-.51,1.64-1.14,1.64-.09,0-.1,0-.14-.18s-.09-.31-.39-.43l-.51-.22,0-.15.51,0c.58,0,.85-.32.85-1a2.76,2.76,0,0,0-.46-1.49l-.58-.82,1-2.65H100V9.86a.29.29,0,0,1-.18.29,1.28,1.28,0,0,1-.41.13c-.09,0-.14-.07-.14-.18V.41Zm2.93.27a1.92,1.92,0,0,1,.23.69h1.68V.13l.88.08c.26,0,.38.09.38.23s-.07.17-.19.24l-.25.15V1.87h1.88l.33-.42.94.86a.27.27,0,0,1,.08.18c0,.17-.16.27-.42.27h-.42l-.92.58-.14-.1.53-1.09h-4.35a1.54,1.54,0,0,1,0,.23c0,.56-.37,1.05-.79,1.05A.43.43,0,0,1,102,3c0-.15,0-.15.49-.69a1.26,1.26,0,0,0,.34-.84c0-.1,0-.18,0-.21l0-.11Zm3.66,2,.92.71a.1.1,0,0,1,.06.1c0,.06,0,.13-.09.13h-3.22l-1.38,0-.14-.35c.75,0,1,0,1.52,0h1.81Z"/><path class="cls-1" d="M119.49,3.9c1.33.18,2.23.75,2.23,1.36a.42.42,0,0,1-.37.45c-.17,0-.29-.12-.53-.51a2.56,2.56,0,0,0-1.36-1.13Zm1.77,4.38a15.3,15.3,0,0,0,3.13-2,25.21,25.21,0,0,0,2.83-2.57c.26-.27.32-.32.37-.32a.12.12,0,0,1,.1.11,8.3,8.3,0,0,1-1.39,1.72,25.63,25.63,0,0,1-2.06,2c-.61.51-1.47,1.16-1.73,1.31-.46.28-.49.29-.62.53s-.16.23-.28.23-.41-.16-.9-.56-.51-.51-.51-.76,0-.2.17-.41A1.78,1.78,0,0,0,121.26,8.28Zm-.49-6.6C122,1.79,123,2.4,123,3c0,.25-.17.48-.35.48s-.2,0-.5-.46a3.35,3.35,0,0,0-1.43-1.19Z"/><path class="cls-1" d="M138.2,2.58a.45.45,0,0,1,.2.32c0,.1-.09.17-.25.19l-.28.06a21.69,21.69,0,0,1-1.76,2.47c2.13.93,3.42,2,3.42,2.79a.44.44,0,0,1-.39.45c-.17,0-.28-.1-.5-.44a9.71,9.71,0,0,0-2.73-2.55,12.57,12.57,0,0,1-3.64,3,3.44,3.44,0,0,1-1,.44.11.11,0,0,1-.11-.1c0-.07,0-.11.33-.28a14,14,0,0,0,5.6-6.08,13.47,13.47,0,0,0-2.13.37l-1.14.25a1.13,1.13,0,0,0-.41.18c-.18.11-.24.14-.31.14s-.11,0-.32-.25c-.4-.42-.53-.6-.53-.73s0-.09.24-.44c.2.35.41.52.6.52l.27,0,3.81-.52.35-.36Z"/><path class="cls-1" d="M148.68,4.82c.1.06.15.11.15.18s0,.13-.23.18l-.23.4a11.29,11.29,0,0,1-1.5,2.36,8.12,8.12,0,0,1-2,1.7c-.21.15-.27.17-.32.17a.1.1,0,0,1-.1-.09c0-.06,0-.1.16-.2a8.73,8.73,0,0,0,1.72-1.76A9,9,0,0,0,147.69,5c0-.14-.06-.25-.23-.46a13.71,13.71,0,0,0-1.42.16l-1.13.18a1.27,1.27,0,0,0-.6.19.5.5,0,0,1-.22.08,2.2,2.2,0,0,1-1-1,.66.66,0,0,1,.21-.44,1.19,1.19,0,0,0,.93.62,3.31,3.31,0,0,0,.52,0c2-.2,3.95-.33,5.45-.37h.2l.51-.32c.57.24,1,.6,1,.84s-.1.26-.2.26a.91.91,0,0,1-.31-.07,12,12,0,0,0-2.32-.17l-.88,0Zm.75-3.26c.67.32,1,.58,1,.8a.16.16,0,0,1-.17.18l-.35,0a7.45,7.45,0,0,0-1.05,0,9.54,9.54,0,0,0-3.29.44.52.52,0,0,1-.2.07,1.89,1.89,0,0,1-.69-.41c-.22-.17-.32-.29-.32-.4a1.29,1.29,0,0,1,.1-.34.18.18,0,0,1,.13-.08,1.56,1.56,0,0,0,.84.52l.42,0L147,2.1l2-.19Z"/><path class="cls-1" d="M157.65,7.7c2.55-.42,2.9-.48,4.43-.78A8.38,8.38,0,0,0,160.42,5c-.18-.15-.21-.19-.21-.24a.1.1,0,0,1,.1-.1c.06,0,.06,0,.69.39A6.67,6.67,0,0,1,163,7a2.43,2.43,0,0,1,.65,1.38c0,.31-.17.5-.43.5s-.35-.14-.53-.62a8.47,8.47,0,0,0-.43-.94l-1.66.41-2.41.59-1,.24-.36.09c-.24.25-.31.29-.4.29a2.13,2.13,0,0,1-1-1.09.72.72,0,0,1,.25-.43c.24.37.37.51.53.51l.32,0,.61-.08a49.21,49.21,0,0,0,2-5.29c0-.16,0-.18-.68-.57.27-.21.39-.28.48-.28a3,3,0,0,1,.93.52c.32.25.45.41.45.54s-.06.15-.2.2-.2.1-.32.32Z"/><path class="cls-1" d="M172.94,4.82c.1.06.15.13.15.18s0,.13-.23.18l-.15.25a11.25,11.25,0,0,1-1.58,2.51,8.2,8.2,0,0,1-2.05,1.71c-.2.14-.25.16-.31.16a.1.1,0,0,1-.09-.09c0-.06,0-.1.17-.2a9,9,0,0,0,2.07-2.3A8,8,0,0,0,172,5c0-.12-.06-.24-.23-.45a13.71,13.71,0,0,0-1.42.16l-1.13.18a1.33,1.33,0,0,0-.58.18.55.55,0,0,1-.25.09,2.29,2.29,0,0,1-1-1,.66.66,0,0,1,.21-.44,1.21,1.21,0,0,0,.91.62,4.36,4.36,0,0,0,.59,0q3-.31,5.41-.37h.2l.51-.32c.57.24,1,.6,1,.84s-.1.26-.19.26a.73.73,0,0,1-.25,0,10.05,10.05,0,0,0-2.37-.19l-.91,0Zm.15-3.21c.67.41.86.59.86.78a.16.16,0,0,1-.18.17h-.6a9.69,9.69,0,0,0-3.34.43.69.69,0,0,1-.22.07,2,2,0,0,1-.69-.41c-.22-.16-.32-.29-.32-.4a.38.38,0,0,1,0-.14l0-.14c0-.1,0-.11.15-.15a1.45,1.45,0,0,0,.85.52l.45,0,1.12-.14,1.43-.12Zm.9-.37a2.84,2.84,0,0,1,1,.34,1.13,1.13,0,0,1,.61.82.35.35,0,0,1-.32.38c-.14,0-.17,0-.36-.33a2.79,2.79,0,0,0-1-1.05ZM175.1.82c.92,0,1.67.46,1.67.94,0,.23-.12.37-.32.37s-.21,0-.43-.34a2.26,2.26,0,0,0-1-.82Z"/><path class="cls-1" d="M187.64,3.45c.84.44,1,.59,1,.87a.18.18,0,0,1-.19.18l-.21,0-.29,0-.54-.09a8,8,0,0,0-1.64-.1,8.32,8.32,0,0,1-.25,2.29,4.92,4.92,0,0,1-2.64,3,3.63,3.63,0,0,1-.82.38.1.1,0,0,1-.09-.09c0-.08,0-.12.27-.25a7.67,7.67,0,0,0,1.59-1.28,5.25,5.25,0,0,0,1.26-3.68c0-.06,0-.21,0-.37-.67,0-1.1.07-2.28.22l0,2.45c0,.2-.09.34-.24.34a.65.65,0,0,1-.56-.52,1.14,1.14,0,0,1,.06-.25,1.89,1.89,0,0,0,.07-.41V4.59a5.63,5.63,0,0,0-1.61.48.36.36,0,0,1-.15.06,3.09,3.09,0,0,1-1-1.07c0-.07,0-.12.24-.42.56.6.6.62,1,.62a12,12,0,0,0,1.53-.17l0-1.32c0-.29,0-.45,0-.49s-.09-.18-.78-.4c.35-.34.36-.35.45-.35a3.33,3.33,0,0,1,1,.33c.19.11.31.21.31.28s0,.11-.17.26a.52.52,0,0,0-.09.13.9.9,0,0,0,0,.23l0,1.25c.63-.08,1-.11,2.3-.22l0-1.63a4.76,4.76,0,0,0,0-.5c0-.08-.09-.15-.26-.23l-.52-.25c.34-.28.43-.35.51-.35a6.12,6.12,0,0,1,1.08.43.3.3,0,0,1,.15.24c0,.08,0,.14-.15.25a.32.32,0,0,0-.12.32v.11l0,1.56h1.12a1.6,1.6,0,0,0,.29,0Zm-1.28-2c.78,0,1.55.59,1.55,1.17a.38.38,0,0,1-.34.4c-.17,0-.28-.12-.41-.43a2.07,2.07,0,0,0-.84-1Zm1-.66c1.07.19,1.63.57,1.63,1.09a.35.35,0,0,1-.34.36c-.14,0-.19,0-.36-.34a1.58,1.58,0,0,0-.69-.73l-.28-.2Z"/><path class="cls-1" d="M196.93,9.27v.21a.35.35,0,0,1-.35.4c-.22,0-.5-.24-.5-.42a.75.75,0,0,1,0-.15,9.06,9.06,0,0,0,.14-2.23V4.72a19.86,19.86,0,0,1-3.06,2,10.7,10.7,0,0,1-1.42.6.12.12,0,0,1-.12-.11c0-.08,0-.09.34-.26a17.3,17.3,0,0,0,3.74-2.6,23.77,23.77,0,0,0,2.14-2.13c.27-.31.27-.32.27-.4s-.22-.36-.53-.5c0,0,0,0,0,0s0,0,.06-.06l.16-.07C198,1,198,1,198.07,1s.11,0,.53.29.7.58.7.77-.11.23-.56.36l-.22.2c-1,.93-1.27,1.2-1.69,1.56.32.08.38.13.38.24s0,.12-.29.31Z"/><path class="cls-1" d="M204.58,2a5.13,5.13,0,0,1,1.32.46A1.86,1.86,0,0,1,207,3.85a.55.55,0,0,1-.46.6c-.18,0-.27-.11-.44-.54a3.57,3.57,0,0,0-1.6-1.77Zm1.26,7.24c-.18,0-.42-.17-.83-.57s-.46-.48-.46-.6a1.17,1.17,0,0,1,.19-.42c.33.33.57.5.71.5a8.79,8.79,0,0,0,1.47-.66,25.9,25.9,0,0,0,5.41-4.12c.11-.12.17-.16.23-.16a.12.12,0,0,1,.1.11A8.48,8.48,0,0,1,211,5.17a17.47,17.47,0,0,1-4.91,3.62C206,9.12,205.93,9.19,205.83,9.19Z"/><path class="cls-1" d="M216.38,5.37A5.83,5.83,0,0,1,215.18,7a.12.12,0,0,1-.11-.1s0-.09.1-.24a11.83,11.83,0,0,0,1.66-5.32c-.71,0-.82,0-1.5,0L215.14,1c.8,0,1.07,0,1.64,0H218l.67-.71.61.45H224l.62-.68.85.67a.18.18,0,0,1,.08.15c0,.07,0,.13-.08.13h-1.62v4h.31l.66-.71.79.65a.29.29,0,0,1,.12.2.14.14,0,0,1-.16.14h-1.72V9.91c0,.17-.31.34-.61.34-.11,0-.17,0-.17-.14V5.34h-1.45c-.06,1.93-.33,2.94-1,3.7a4.75,4.75,0,0,1-1.79,1.25.1.1,0,0,1-.1-.1s0,0,.46-.38a5.5,5.5,0,0,0,1-1.18,5.76,5.76,0,0,0,.61-2.94V5.34l-1.45,0L219.25,5c.75,0,.85,0,1.61,0v-4h-1.29a.84.84,0,0,1,0,.15c0,.08-.07.13-.19.13h-1.69a14.42,14.42,0,0,1-.85,2.92l.22.2h1.12l.33-.44.65.61a.25.25,0,0,1,.09.18s0,.08-.09.1L219,5V8.81c0,.12,0,.18-.2.28a.67.67,0,0,1-.32.11c-.11,0-.19-.07-.19-.15V8.44h-1.22V9.57c0,.17-.29.39-.53.39s-.16,0-.16-.12Zm1.9,2.79V4.75h-1.21V8.16Zm4.78-3.09v-4h-1.43v4Z"/><path class="cls-1" d="M228.72,1a2,2,0,0,1,.19.57h3.19V.11l.93.08c.16,0,.25.08.25.2a.3.3,0,0,1-.17.25l-.24.14v.79h3l.34-.48,1.07.86a.31.31,0,0,1,.13.25.25.25,0,0,1-.27.26H237l-.34,0-1.19.84-.16-.1.57-1.28H234v2.2c0,.21.08.24.74.24a7.31,7.31,0,0,0,1.17-.07c.27-.06.41-.2.54-.59l.32-.91.15,0-.07,1V4a.26.26,0,0,0,.16.24c.15.09.17.11.17.2,0,.25-.31.45-.77.51a15.08,15.08,0,0,1-1.64.07c-1.21,0-1.47-.11-1.47-.63V1.88h-1.55a5.68,5.68,0,0,1-.74,2,3.69,3.69,0,0,1-2.35,1.73,4.54,4.54,0,0,1-1,.23.09.09,0,0,1-.1-.09c0-.08,0-.09.28-.17,1.88-.62,2.65-1.61,2.92-3.71H229c0,.13,0,.23,0,.29,0,.82-.4,1.45-.91,1.45a.43.43,0,0,1-.43-.46.73.73,0,0,1,.26-.52c.52-.59.65-.84.65-1.27,0-.09,0-.18,0-.31Zm5.1,5.31.29-.5.79.6a.22.22,0,0,1,.08.14.16.16,0,0,1-.11.14l-.26.12V8.9c0,.26.06.28.61.28,1.43,0,1.58-.06,1.76-.69l.29-1h.19l-.07,1.11V8.8c0,.17,0,.2.17.31a.35.35,0,0,1,.18.27c0,.16-.18.32-.42.39a13.51,13.51,0,0,1-1.94.11c-.84,0-1.12,0-1.29-.16a.6.6,0,0,1-.23-.57V6.62h-1.66a4,4,0,0,1-1.13,2.23,6.16,6.16,0,0,1-2.24,1.28,5.42,5.42,0,0,1-1.08.32c-.07,0-.1,0-.1-.08s0-.08.14-.12c2.31-1,3.25-1.92,3.62-3.63h-1.62c-.56,0-.86,0-1.68,0l-.28-.41c1.09,0,1.52.06,2,.06h1.67a14.94,14.94,0,0,0,.16-2l1,.14c.17,0,.25.09.25.2a.34.34,0,0,1-.18.27l-.24.15c-.08.58-.09.67-.16,1.19Z"/><path class="cls-1" d="M241.58,5.83a9.15,9.15,0,0,1-1.52,2.1c-.31.34-.41.42-.48.42a.05.05,0,0,1-.06-.06s0-.1.21-.37a11.3,11.3,0,0,0,1.81-4.16l-1.8,0-.15-.34h2V1.62c-1.16.25-1.73.36-1.83.36s-.16,0-.16-.1,0-.08.55-.25A16.72,16.72,0,0,0,243.38.25l.64.61a.27.27,0,0,1,.08.17c0,.08-.08.11-.27.12l-.39,0c-.49.13-.57.14-1.11.26v2h.74l.57-.62.71.6a.24.24,0,0,1,.09.19c0,.07,0,.11-.09.11h-2V5a2.72,2.72,0,0,1,1.24.59,1,1,0,0,1,.34.71.44.44,0,0,1-.42.45c-.14,0-.22-.08-.31-.31a2.43,2.43,0,0,0-.85-1.18v4.5a.32.32,0,0,1-.16.31,1,1,0,0,1-.42.14.16.16,0,0,1-.17-.15Zm1.25,1.79,1.11-.18.8-.12,2.75-.5V.25l.92.08c.2,0,.29.08.29.2a.26.26,0,0,1-.15.21l-.28.16V6.68l.46-.09.45-.79.82.61a.17.17,0,0,1,.06.13.11.11,0,0,1-.09.1l-1.7.34v3c0,.16-.06.23-.24.29a1.14,1.14,0,0,1-.31.07c-.15,0-.24-.08-.24-.2v-3l-2.69.46L243,7.91ZM244.28,4c.87.08,1.89.91,1.89,1.51a.53.53,0,0,1-.49.56c-.18,0-.26-.08-.34-.33a2.42,2.42,0,0,0-1.13-1.59Zm.66-2.55c1.12.26,1.84.86,1.84,1.53a.49.49,0,0,1-.46.51c-.21,0-.24,0-.46-.63a2.94,2.94,0,0,0-1-1.24Z"/><path class="cls-1" d="M3,20.91c1.33.18,2.23.75,2.23,1.36a.42.42,0,0,1-.37.45c-.17,0-.29-.12-.53-.51A2.56,2.56,0,0,0,3,21.08Zm1.77,4.38a15.3,15.3,0,0,0,3.13-2,25.21,25.21,0,0,0,2.83-2.57c.26-.27.32-.32.37-.32a.12.12,0,0,1,.1.11,8.3,8.3,0,0,1-1.39,1.72,25.63,25.63,0,0,1-2.06,2c-.61.51-1.47,1.16-1.73,1.31-.46.28-.49.29-.62.53s-.16.23-.28.23-.41-.16-.9-.56-.51-.51-.51-.76,0-.2.17-.41A1.78,1.78,0,0,0,4.81,25.28Zm-.49-6.6c1.21.11,2.21.73,2.21,1.35,0,.25-.17.48-.35.48s-.2,0-.5-.46a3.35,3.35,0,0,0-1.43-1.19Z"/><path class="cls-1" d="M21.75,19.59a.45.45,0,0,1,.2.32c0,.1-.09.17-.25.19l-.28.06a21.69,21.69,0,0,1-1.76,2.47c2.13.93,3.42,2,3.42,2.79a.44.44,0,0,1-.39.45c-.17,0-.28-.1-.5-.44a9.71,9.71,0,0,0-2.73-2.55,12.57,12.57,0,0,1-3.64,3,3.44,3.44,0,0,1-1,.44.11.11,0,0,1-.11-.1c0-.07,0-.11.33-.28a14,14,0,0,0,5.6-6.08,13.47,13.47,0,0,0-2.13.37l-1.14.25a1.13,1.13,0,0,0-.41.18c-.18.11-.24.14-.31.14s-.11,0-.32-.25c-.4-.42-.53-.6-.53-.73s0-.09.24-.44c.2.35.41.52.6.52l.27,0,3.81-.52.35-.36Z"/><path class="cls-1" d="M32.23,21.83c.1.06.15.11.15.18s0,.13-.23.18l-.23.4a11.29,11.29,0,0,1-1.5,2.36,8.12,8.12,0,0,1-2,1.7c-.21.15-.27.17-.32.17a.1.1,0,0,1-.1-.09c0-.06,0-.1.16-.2a8.73,8.73,0,0,0,1.72-1.76A9,9,0,0,0,31.24,22c0-.14-.06-.25-.23-.46a13.71,13.71,0,0,0-1.42.16l-1.13.18a1.27,1.27,0,0,0-.6.19.5.5,0,0,1-.22.08,2.2,2.2,0,0,1-1-1,.66.66,0,0,1,.21-.44,1.19,1.19,0,0,0,.93.62,3.31,3.31,0,0,0,.52,0c2-.2,3.95-.33,5.45-.37h.2l.51-.32c.57.24,1,.6,1,.84s-.1.26-.2.26a.91.91,0,0,1-.31-.07,12,12,0,0,0-2.32-.17l-.88,0ZM33,18.56c.67.32,1,.58,1,.8a.16.16,0,0,1-.17.18l-.35,0a7.45,7.45,0,0,0-1.05,0,9.54,9.54,0,0,0-3.29.44.52.52,0,0,1-.2.07,1.89,1.89,0,0,1-.69-.41c-.22-.17-.32-.29-.32-.4a1.29,1.29,0,0,1,.1-.34.18.18,0,0,1,.13-.08,1.56,1.56,0,0,0,.84.52l.42,0,1.17-.14,2-.19Z"/><path class="cls-1" d="M41.2,24.71c2.55-.42,2.9-.48,4.43-.78A8.38,8.38,0,0,0,44,22c-.18-.15-.21-.19-.21-.24a.1.1,0,0,1,.1-.1c.06,0,.06,0,.69.39a6.67,6.67,0,0,1,2,1.87,2.43,2.43,0,0,1,.65,1.38c0,.31-.17.5-.43.5s-.35-.14-.53-.62a8.47,8.47,0,0,0-.43-.94l-1.66.41-2.41.59-1,.24-.36.09c-.24.25-.31.29-.4.29a2.13,2.13,0,0,1-1-1.09.72.72,0,0,1,.25-.43c.24.37.37.51.53.51l.32,0,.61-.08a49.21,49.21,0,0,0,2-5.29c0-.16,0-.18-.68-.57.27-.21.39-.28.48-.28a3,3,0,0,1,.93.52c.32.25.45.41.45.54s-.06.15-.2.2-.2.1-.32.32Z"/><path class="cls-1" d="M56.49,21.83c.1.06.15.13.15.18s0,.13-.23.18l-.15.25a11.25,11.25,0,0,1-1.58,2.51,8.2,8.2,0,0,1-2.05,1.71c-.2.14-.25.16-.31.16a.1.1,0,0,1-.09-.09c0-.06,0-.1.17-.2a9,9,0,0,0,2.07-2.3,8,8,0,0,0,1-2.2c0-.12-.06-.24-.23-.45a13.71,13.71,0,0,0-1.42.16l-1.13.18a1.33,1.33,0,0,0-.58.18.55.55,0,0,1-.25.09,2.29,2.29,0,0,1-1-1,.66.66,0,0,1,.21-.44,1.21,1.21,0,0,0,.91.62,4.36,4.36,0,0,0,.59,0q3-.31,5.41-.37h.2l.51-.32c.57.24,1,.6,1,.84s-.1.26-.19.26a.73.73,0,0,1-.25,0,10.05,10.05,0,0,0-2.37-.19l-.91,0Zm.15-3.21c.67.41.86.59.86.78a.16.16,0,0,1-.18.17h-.6a9.69,9.69,0,0,0-3.34.43.69.69,0,0,1-.22.07,2,2,0,0,1-.69-.41c-.22-.16-.32-.29-.32-.4a.38.38,0,0,1,0-.14l0-.14c0-.1,0-.11.15-.15a1.45,1.45,0,0,0,.85.52l.45,0,1.12-.14,1.43-.12Zm.9-.37a2.84,2.84,0,0,1,1,.34,1.13,1.13,0,0,1,.61.82.35.35,0,0,1-.32.38c-.14,0-.17,0-.36-.33a2.79,2.79,0,0,0-1-1.05Zm1.11-.42c.92,0,1.67.46,1.67.94,0,.23-.12.37-.32.37s-.21,0-.43-.34a2.26,2.26,0,0,0-1-.82Z"/><path class="cls-1" d="M71.19,20.45c.84.44,1,.59,1,.87a.18.18,0,0,1-.19.18l-.21,0-.29,0L71,21.35a8,8,0,0,0-1.64-.1,8.32,8.32,0,0,1-.25,2.29,4.92,4.92,0,0,1-2.64,3,3.63,3.63,0,0,1-.82.38.1.1,0,0,1-.09-.09c0-.08,0-.12.27-.25a7.67,7.67,0,0,0,1.59-1.28,5.25,5.25,0,0,0,1.26-3.68c0-.06,0-.21,0-.37-.67,0-1.1.07-2.28.22l0,2.45c0,.2-.09.34-.24.34a.65.65,0,0,1-.56-.52,1.14,1.14,0,0,1,.06-.25,1.89,1.89,0,0,0,.07-.41V21.6a5.63,5.63,0,0,0-1.61.48.36.36,0,0,1-.15.06,3.09,3.09,0,0,1-1-1.07c0-.07,0-.12.24-.42.56.6.6.62,1,.62a12,12,0,0,0,1.53-.17l0-1.32c0-.29,0-.45,0-.49s-.09-.18-.78-.4c.35-.34.36-.35.45-.35a3.33,3.33,0,0,1,1,.33c.19.11.31.21.31.28s0,.11-.17.26a.52.52,0,0,0-.09.13.9.9,0,0,0,0,.23l0,1.25c.63-.08,1-.11,2.3-.22l0-1.63a4.76,4.76,0,0,0,0-.5c0-.08-.09-.15-.26-.23l-.52-.25c.34-.28.43-.35.51-.35a6.12,6.12,0,0,1,1.08.43.3.3,0,0,1,.15.24c0,.08,0,.14-.15.25a.32.32,0,0,0-.12.32v.11l0,1.56h1.12a1.6,1.6,0,0,0,.29,0Zm-1.28-2c.78,0,1.55.59,1.55,1.17a.38.38,0,0,1-.34.4c-.17,0-.28-.12-.41-.43a2.07,2.07,0,0,0-.84-1Zm1-.66c1.07.19,1.63.57,1.63,1.09a.35.35,0,0,1-.34.36c-.14,0-.19,0-.36-.34a1.58,1.58,0,0,0-.69-.73l-.28-.2Z"/><path class="cls-1" d="M80.49,26.28v.21a.35.35,0,0,1-.35.4c-.22,0-.5-.24-.5-.42a.75.75,0,0,1,0-.15,9.06,9.06,0,0,0,.14-2.23V21.72a19.86,19.86,0,0,1-3.06,2,10.7,10.7,0,0,1-1.42.6.12.12,0,0,1-.12-.11c0-.08,0-.09.34-.26a17.3,17.3,0,0,0,3.74-2.6,23.77,23.77,0,0,0,2.14-2.13c.27-.31.27-.32.27-.4s-.22-.36-.53-.5c0,0,0,0,0,0s0,0,.06-.06l.16-.07c.19-.09.19-.09.25-.09s.11,0,.53.29.7.58.7.77-.11.23-.56.36l-.22.2c-1,.93-1.27,1.2-1.69,1.56.32.08.38.13.38.24s0,.12-.29.31Z"/><path class="cls-1" d="M88.13,19a5.13,5.13,0,0,1,1.32.46,1.86,1.86,0,0,1,1.11,1.44.55.55,0,0,1-.46.6c-.18,0-.27-.11-.44-.54A3.57,3.57,0,0,0,88,19.15Zm1.26,7.24c-.18,0-.42-.17-.83-.57s-.46-.48-.46-.6a1.17,1.17,0,0,1,.19-.42c.33.33.57.5.71.5a8.79,8.79,0,0,0,1.47-.66,25.9,25.9,0,0,0,5.41-4.12c.11-.12.17-.16.23-.16a.12.12,0,0,1,.1.11,8.48,8.48,0,0,1-1.62,1.88,17.47,17.47,0,0,1-4.91,3.62C89.54,26.12,89.48,26.2,89.39,26.2Z"/><path class="cls-1" d="M103.49,17.13l.79.07c.28,0,.41.1.41.23s-.08.19-.27.28l-.19.1v.81h3.22l.65-.68.9.69a.17.17,0,0,1,.09.15.1.1,0,0,1-.1.11h-4.75v1h2.43l.31-.44.71.66a.25.25,0,0,1,.09.17c0,.06,0,.1-.12.13l-.24.08V23c0,.11,0,.18-.18.24a1.41,1.41,0,0,1-.37.1.16.16,0,0,1-.16-.17V23h-.45v1.16h1.27l.66-.69.9.67a.21.21,0,0,1,.1.17.15.15,0,0,1-.12.13h-2.8v2.07c0,.31-.06.41-.36.63a1.68,1.68,0,0,1-.67.28c-.09,0-.14-.06-.15-.19s-.07-.27-.18-.32l-1-.36v-.18l1.26,0c.26,0,.35-.09.36-.35V24.39h-4.42l-1,0-1,0-.18-.39,1.19,0,1,0h4.42V23h-4.33v.31c0,.17-.23.31-.53.31-.1,0-.18-.1-.18-.25V19.45l.9.48h2.15v-1H101l-1,0-1,0-.17-.4,1.21,0,1,0h2.53Zm0,4.15V20.19h-2.34v1.09Zm0,1.41V21.55h-2.34v1.13Zm-1.86,2c.82.24,1.28.73,1.28,1.34,0,.37-.18.61-.45.61a.28.28,0,0,1-.25-.12c-.06-.08-.06-.08-.22-.83a2,2,0,0,0-.48-.9Zm5.06-3.36V20.19h-2.46v1.09Zm0,1.41V21.55h-2.46v1.13Z"/><path class="cls-1" d="M112.75,19.33l-1.64,0L111,19l1.79,0h1.18l.7-.79.93.8a.17.17,0,0,1,.08.13c0,.07-.06.14-.1.14H113.5v4.78c.61-.1,1.07-.2,2.38-.52l.07.18a40.16,40.16,0,0,1-3.79,1.35l-.14.26a.33.33,0,0,1-.25.19.29.29,0,0,1-.21-.11l-.65-.87,1.83-.32Zm4.93-1.8a.22.22,0,0,1,.15.2c0,.11-.07.2-.21.27l-.26.11a16.45,16.45,0,0,1-.67,1.81h2.89l.69-.77.87.75a.22.22,0,0,1,.08.17c0,.07,0,.13-.09.13H119.5a10,10,0,0,1-1.39,4.06,7.3,7.3,0,0,0,3.28,1.84l-.17.1a1.69,1.69,0,0,0-.58.42,3.68,3.68,0,0,0-.26.33,8.91,8.91,0,0,1-2.71-2.11,6.62,6.62,0,0,1-2.83,1.87,8.22,8.22,0,0,1-1.56.42c-.1,0-.16,0-.16-.11s.1-.15.53-.27a6.92,6.92,0,0,0,3.59-2.44,7.63,7.63,0,0,1-1.1-3.28,7.3,7.3,0,0,1-1.61,2.21.1.1,0,0,1-.09-.08s0-.09.18-.36a16.37,16.37,0,0,0,1.94-5.69Zm-1.12,2.68-.16.33a6.73,6.73,0,0,0,1.21,3.21,8.68,8.68,0,0,0,1-3.54Z"/><path class="cls-1" d="M3.7,45.58a15.59,15.59,0,0,1,.66,4.33c0,2.88-1.44,5.65-3,5.65A1.43,1.43,0,0,1,0,54.31a2.48,2.48,0,0,1,.58-1.36c1.83-2.65,2.49-4.29,2.49-6.31,0-.19,0-.51,0-.93Zm5-7.13c.78.08,1.13.31,1.13.9,0,.27-.2.51-.58.74l-1.05.55V45A9,9,0,0,1,12,46.91a3.56,3.56,0,0,1,1.29,2.38A1.39,1.39,0,0,1,12,50.61c-.62,0-.62,0-1.79-2.38a6.33,6.33,0,0,0-1.95-2.3V72.24c0,.47-.2.62-.82.86a5,5,0,0,1-1.09.23.49.49,0,0,1-.55-.43V38.26Zm1.75,12.9,6.63.16H21.2V48H18.82c-1.25,0-2.3,0-4.75.12l-.47-1.21,2.84.12c1.09,0,2.07,0,2.38,0H21.2V43.67H17.3c-.51,0-1.33,0-2.34,0l-2.53.08-.58-1.21L15,42.7c1,0,1.91,0,2.3,0h3.9V38.1l3.08.23c.55,0,.86.31.86.78,0,.27-.16.47-.54.66l-.94.55v2.42h5.46l2.14-2.42,2.81,2.14a1,1,0,0,1,.47.74c0,.31-.16.47-.51.47H23.66V47.1h4.21l1.95-1.91L32,46.75a1.3,1.3,0,0,1,.58.82.5.5,0,0,1-.47.47H23.66v3.47h6.7l2.42-2.38,2.92,2.22a.74.74,0,0,1,.31.58.46.46,0,0,1-.47.51H17.11c-.9,0-1.95,0-3.16,0l-3,.12Zm7.17,4.05H28L29,53.84l2.53,2.34a.82.82,0,0,1,.27.55.57.57,0,0,1-.47.51l-.7.23V70.8c0,.82-.31,1.25-1.44,2a3,3,0,0,1-1.36.51c-.35,0-.43-.12-.58-1.25,0-.39-.16-.51-.74-.7l-3.23-1.09v-.55H27c1.13,0,1.21-.08,1.25-.82V65.18H16.91v7c0,.62-.86,1.29-1.71,1.29-.35,0-.62-.16-.62-.35V53.84Zm10.56,4.44V56.34H16.91v3.51Zm0,4.4V60.78H16.91v3.47Z"/><path class="cls-1" d="M53.16,45.46h-2.3c-1,0-1.09,0-5,.12l-.35-1.21c3.16.16,4.21.16,5.38.16h2.3V38.26l2.84.19c.7,0,1.13.35,1.13.78a1.12,1.12,0,0,1-.74,1l-.82.35v4h3.27l1.95-2.26L63.14,44a1.3,1.3,0,0,1,.7,1c0,.27-.31.51-.7.51H55.58v4.75h4.13L61.66,48l2.53,1.91a.94.94,0,0,1,.47.74.46.46,0,0,1-.51.47h-5l1.25.82a.58.58,0,0,1,0,1.09l-.74.43L57.1,58.05h2.69l2-2.26,2.57,2a.76.76,0,0,1,.39.66.53.53,0,0,1-.51.55H55.66v5H59l2-2.26,2.34,1.79c.39.27.54.51.54.82a.66.66,0,0,1-.7.58H55.66v7.33c0,.58-.86,1.13-1.83,1.13a.6.6,0,0,1-.58-.66V65H50.9s-1.25,0-2.38,0c-.43,0-1.29,0-2.61.08l-.31-1.21,2.92.08c1,0,1.83.08,2.38.08h2.34V59H50.36c-1.09,0-2.1,0-4.91.12l-.55-1.17c2.65.12,3,.12,5.38.12-.08-.31-.16-.55-.16-.58L50,55.25a6.3,6.3,0,0,0-1.83-4.09l-3.16.08-.39-1.17c2.73.12,3.86.16,5.22.16h3.27Zm2.73,12.59a38.1,38.1,0,0,0,1.6-6.9H49.07c2.49,1.4,3.82,3.16,3.82,5a3.56,3.56,0,0,1-.58,1.87ZM68.32,41.57h6.47L76.08,40l1.83,1.68c.54.51.86.9.86,1.17s-.31.47-.66.62l-.58.27v7.13c0,1.29-.2,1.68-1.13,2.22a3.5,3.5,0,0,1-1.6.58c-.27,0-.35-.16-.43-.66s-.12-.66-1.05-1l-2.65-.82.2-.62,2.34.12h.47c1.25,0,1.48-.2,1.48-1.33V42.5H67.89V55.13h7.79l1.09-1.4L79,55.91c.27.27.35.43.35.58s-.16.39-.47.51l-.93.35a36.19,36.19,0,0,1-3.27,7.83,21.53,21.53,0,0,0,6.39,4.36,8.24,8.24,0,0,0-2.61,2.69,29.05,29.05,0,0,1-5.1-5.14,21.07,21.07,0,0,1-3.7,4.05c-.47.47-.66.58-.82.58a.28.28,0,0,1-.31-.27c0-.2,0-.2.66-1a26.19,26.19,0,0,0,3.16-4.79,23.79,23.79,0,0,1-3.47-9.59h-1V72c0,.74-.66,1.25-1.68,1.25-.43,0-.62-.19-.62-.66V40.28Zm1.52,14.5c.9,3.58,1.95,5.88,3.47,7.6a40.77,40.77,0,0,0,2.3-7.6Z"/><path class="cls-1" d="M97.21,57.82A31.39,31.39,0,0,1,92,65c-1.05,1.17-1.4,1.44-1.64,1.44a.18.18,0,0,1-.2-.2c0-.16.12-.35.74-1.29,3.12-4.56,5.61-10.21,6.24-14.3-3,0-3.24,0-6.2.12l-.51-1.17,3.55,0,3.23,0V43.36c-4,.86-6,1.25-6.27,1.25s-.55-.12-.55-.35,0-.27,1.91-.86a57.55,57.55,0,0,0,11.07-4.75l2.18,2.1a.91.91,0,0,1,.27.58c0,.27-.27.39-.94.43l-1.33.12c-1.68.43-1.95.47-3.82.9v6.94h2.53l1.95-2.14,2.46,2.07a.83.83,0,0,1,.31.66c0,.23-.12.39-.31.39H99.74V55c2.49.78,3.35,1.17,4.25,2a3.49,3.49,0,0,1,1.17,2.46A1.52,1.52,0,0,1,103.71,61c-.47,0-.74-.27-1.05-1.05a8.34,8.34,0,0,0-2.92-4.05l0,15.47a1.08,1.08,0,0,1-.54,1.05,3.27,3.27,0,0,1-1.44.47.56.56,0,0,1-.58-.51ZM101.49,64c1.29-.23,2.53-.43,3.82-.62s2.3-.35,2.77-.43l9.47-1.71V38.65l3.16.27c.7.08,1,.27,1,.7a.89.89,0,0,1-.51.74l-1,.54V60.74l1.6-.31,1.56-2.73,2.81,2.1a.56.56,0,0,1,.19.43.37.37,0,0,1-.31.35l-5.85,1.17V71.93c0,.54-.2.78-.82,1a4,4,0,0,1-1.05.23c-.51,0-.82-.27-.82-.7V62.3l-9.24,1.6c-3.82.7-4,.74-6.08,1.09Zm5-12.39c3,.27,6.51,3.12,6.51,5.18a1.82,1.82,0,0,1-1.67,1.91c-.62,0-.9-.27-1.17-1.13-1-3-1.91-4.29-3.9-5.46Zm2.26-8.77c3.86.9,6.31,3,6.31,5.26a1.67,1.67,0,0,1-1.6,1.75c-.74,0-.82-.08-1.6-2.18a10.1,10.1,0,0,0-3.47-4.25Z"/><path class="cls-1" d="M151,56.65l2.57.86a51.42,51.42,0,0,0,4.33-3.43H147.48c-.58,0-1.64,0-2.84,0l-3.51.12-.39-1.29c1.64,0,3.43.12,3.9.12l2.84.08H158.4l1.29-1.44,2.73,2.65a1.11,1.11,0,0,1,.35.66c0,.39-.35.55-1.17.55h-1.48l-6.39,3.12v2.18h10.76l2.18-2.61L170,60.94a.63.63,0,0,1,.23.51.36.36,0,0,1-.39.35H153.72v8.3c0,1.36-.12,1.6-1.29,2.22a8.62,8.62,0,0,1-1.95.7c-.16,0-.31-.2-.39-.55-.27-1.05-.27-1.09-.9-1.33l-3.39-.82v-.78l3.82.2c1.32-.12,1.36-.12,1.36-.86V61.79h-8.26c-1.25,0-1.48,0-7.25.2l-.43-1.36c1.79,0,3.51.12,4.05.12,1.87.08,3.12.12,3.62.12H151ZM139.26,45.93c.23.7.31,1,.54,1.91H158a51.6,51.6,0,0,0,3-9.63l3.55,1.64a.83.83,0,0,1,.47.74q0,.64-.82.82l-1,.2-3.82,6.24h5.88l1.48-1.68,3.31,3.7a1.17,1.17,0,0,1,.35.78c0,.47-.39.74-1.05.74a1.82,1.82,0,0,1-.66-.08l-1.05-.23L163.74,54l-.47-.27,2-4.95H140c0,.47,0,.78,0,1,0,2.57-1.4,4.64-3.12,4.64a1.26,1.26,0,0,1-1.4-1.29c0-.66,0-.66,1.83-2.65a7.07,7.07,0,0,0,1.4-4.56Zm1.68-6.82c3.27,1,5.49,3.16,5.49,5.49a1.74,1.74,0,0,1-1.6,1.91,1.24,1.24,0,0,1-1-.47c-.16-.23-.16-.23-.78-3a8.22,8.22,0,0,0-2.26-3.51Zm7.05-.82c3.82,1,6.27,3.12,6.27,5.46,0,1.09-.62,1.79-1.52,1.79a1.31,1.31,0,0,1-1.05-.51,10.57,10.57,0,0,1-.9-2.61,6.76,6.76,0,0,0-3-3.55Z"/><path class="cls-1" d="M183.89,49.67v-11l3.27.27a.74.74,0,0,1,.78.66,1.26,1.26,0,0,1-.66.94l-.86.58v8.5h.74l1.95-2.38,2.69,2.38a.46.46,0,0,1,.19.43c0,.31-.16.55-.39.55h-5.18V63.74l4.95-1.44.31.58-9.24,4.56-.39,1a.9.9,0,0,1-.66.47.81.81,0,0,1-.66-.39l-1.91-2.81,5.07-1.25V50.65l-4.52.12-.43-1.25Zm19.8,14.42.2.62-10.13,3.9-.43.9a.78.78,0,0,1-.66.51c-.31,0-.43-.12-.74-.54l-1.75-2.81ZM191.1,46.48c1.52,0,2.92.08,3.43.12,1.71,0,2.84.08,3.31.08h5.81c-.08-1.56-.12-3-.12-3.43l-.08-2.34-.08-2.84,3.2.39c.51.08.82.35.82.7s-.16.51-.55.74l-.93.62.12,6.16h4.09l2.07-2.34,2.46,2.22a.63.63,0,0,1,.23.51.5.5,0,0,1-.47.55h-8.34c.23,6.86.47,8.57,1.52,12.51a37.75,37.75,0,0,0,3.2-9.16l2.77,1.6a.88.88,0,0,1,.51.7.75.75,0,0,1-.66.74l-.82.16A58.74,58.74,0,0,1,208.4,63a14.66,14.66,0,0,0,2,3.78c.54.78.66.9.82.9.47,0,.74-.55,2.57-5.22l.58.35-.9,5.22a2.82,2.82,0,0,0-.08.86,3.55,3.55,0,0,0,.51,1.64,3.61,3.61,0,0,1,.27,1.13.89.89,0,0,1-1,.78c-.78,0-1.75-.66-3.16-2.1a18.65,18.65,0,0,1-3.16-4.91A27.48,27.48,0,0,1,201,71.07a17.31,17.31,0,0,1-3.62,2.22.47.47,0,0,1-.39-.47c0-.19.16-.31,1.05-1a29.15,29.15,0,0,0,7.91-8.57c-1.36-3.58-2.1-8.65-2.26-15.67h-5.85l-3.08.08c-.47,0-1.79.08-3.27.08Zm4.52,5.65H199l1-1.56,2.22,2.26a1.05,1.05,0,0,1,.23.47c0,.16-.2.35-.43.43l-.55.16v7.29c0,.7-.74,1.21-1.75,1.21-.39,0-.51-.16-.51-.55V60h-3.9v2.34c0,.58-.78,1.05-1.75,1.05-.35,0-.47-.16-.47-.55v-12Zm3.59,7v-6h-3.9v6Zm8-18.67a5.42,5.42,0,0,1,2.73.78,2.86,2.86,0,0,1,1.56,2.3,1.33,1.33,0,0,1-1.36,1.36c-.58,0-.58,0-1.29-1.68A6.44,6.44,0,0,0,207,40.87Z"/></svg>
