<svg version="1.1" id="_x31_0" xmlns="http://www.w3.org/2000/svg" xmlns:xlink="http://www.w3.org/1999/xlink" x="0" y="0" width="512" height="512" viewBox="0 0 512 512" style="width: 512px; height: 512px; opacity: 1;" xml:space="preserve">
<g>
	<polygon class="st0" points="279.637,219.363 279.637,157.012 437.176,130.027 471.844,70.89 419.473,26.664 279.637,50.617 
		279.637,0 241.215,0 241.215,57.199 189.055,66.133 40.258,91.512 40.364,91.602 40.156,91.637 92.528,135.863 57.86,194.996 
		241.215,163.59 241.215,219.363 111.84,219.363 73.324,265.102 111.84,310.836 241.215,310.836 241.215,393.527 241.215,393.832 
		241.215,393.832 241.215,393.992 279.637,393.992 279.637,310.836 447.528,310.836 409.012,265.102 432.414,237.313 
		447.528,219.527 447.391,219.527 447.528,219.363" style="fill:#006543;"></polygon>
	<path class="st0" d="M329.368,426.703c-0.766-5.367-5.36-9.352-10.782-9.352h-116.32c-5.422,0-10.016,3.985-10.782,9.352
		l-10.41,72.863c-0.937,6.562,4.153,12.434,10.782,12.434h137.141c6.629,0,11.718-5.871,10.781-12.434L329.368,426.703z" style="fill:#006543;"></path>
</g>
</svg>
