<svg version="1.1" id="_x31_0" xmlns="http://www.w3.org/2000/svg" xmlns:xlink="http://www.w3.org/1999/xlink" x="0" y="0" width="512" height="512" viewBox="0 0 512 512" style="width: 512px; height: 512px; opacity: 1;" xml:space="preserve">
<g>
	<path class="st0" d="M472.222,10.406H39.774C17.844,10.406,0,28.25,0,50.184v314.277c0,21.934,17.844,39.774,39.774,39.774h178.351
		c-4.484,20.133-15.164,46.715-27.629,46.715c-16.508,0-29.89,13.382-29.89,29.89v20.754H351.39V480.84
		c0-16.508-13.382-29.89-29.886-29.89c-12.469,0-23.149-26.582-27.629-46.715h178.347c21.934,0,39.778-17.84,39.778-39.774V50.184
		C512,28.25,494.156,10.406,472.222,10.406z M473.149,304.566H38.851V50.184c0-0.465,0.458-0.926,0.922-0.926h432.449
		c0.469,0,0.926,0.462,0.926,0.926V304.566z" style="fill:#fff;"></path>
</g>
</svg>
